PathFileType	4	(X/Y/Z)	Patient4_TMGait_0pt4_03_right_32.trc.trc
DataRate	CameraRate	NumFrames	NumMarkers	Units	OrigDataRate	OrigDataStartFrame	OrigNumFrames
73.684210526316	73.684210526316	4	33	mm	73.684210526316	71	       141
Frame#	Time	Sacral			L.Shoulder			Chest			R.Shoulder			Neck			R.ASIS			L.ASIS			R.Thigh.Superior			R.Thigh.Lateral			R.Thigh.Inferior			R.Patella			L.Thigh.Superior			L.Thigh.Lateral			L.Thigh.Inferior			L.Patella			L.Shank.Superior			L.Shank.Lateral			L.Shank.Inferior			R.Shank.Superior			R.Shank.Lateral			R.Shank.Inferior			R.Heel			R.Midfoot.Superior			R.Midfoot.Lateral			R.Toe			L.Heel			L.Midfoot.Lateral			L.Midfoot.Superior			L.Toe			L.Elbow			L.Wrist			R.Elbow			R.Wrist			
		X1	Y1	Z1	X2	Y2	Z2	X3	Y3	Z3	X4	Y4	Z4	X5	Y5	Z5	X6	Y6	Z6	X7	Y7	Z7	X8	Y8	Z8	X9	Y9	Z9	X10	Y10	Z10	X11	Y11	Z11	X12	Y12	Z12	X13	Y13	Z13	X14	Y14	Z14	X15	Y15	Z15	X16	Y16	Z16	X17	Y17	Z17	X18	Y18	Z18	X19	Y19	Z19	X20	Y20	Z20	X21	Y21	Z21	X22	Y22	Z22	X23	Y23	Z23	X24	Y24	Z24	X25	Y25	Z25	X26	Y26	Z26	X27	Y27	Z27	X28	Y28	Z28	X29	Y29	Z29	X30	Y30	Z30	X31	Y31	Z31	X32	Y32	Z32	X33	Y33	Z33	

71	42.490000000000	853.517364616728	1005.572076382472	506.919065031501	999.746231241815	1433.658529281425	309.891447800399	1129.807451318997	1363.572797222478	449.522284350862	1079.402663681062	1434.063383170625	636.998110030489	1007.815626232532	1492.893381686532	467.932933353338	1092.867635829631	937.559464511614	593.926198611363	1046.102765620933	960.787896519849	322.253282097781	1092.078905908145	727.312522558937	567.195068685539	994.539026022128	631.456656424751	636.620268479956	1051.212618621848	567.945793946666	553.675544652060	1036.332304328421	484.733891701564	561.234199383324	1116.038681547850	769.422179563267	341.423248312573	1055.429908422526	641.563849452553	268.950281750868	1162.007925806649	580.029238349425	319.964609626133	1185.686622984873	516.045836590288	315.933703743821	1167.310370265772	445.027563395171	307.232700422104	1095.292421500775	317.007827673836	260.628583066138	1184.348118141139	215.810101844447	307.317971870624	1000.981289713015	399.192231533944	569.202578157591	923.034330210603	301.014148074131	633.062911181417	956.494387272173	203.550541473742	567.408005404357	815.649332170514	41.787890978498	536.483142933543	985.919827670592	95.918142539092	571.697591233899	898.892840416528	36.356677097529	611.607433054066	1106.849224932975	45.864839272735	599.180310331903	1099.386691240207	43.914808273402	352.518199608489	1167.751260542336	42.479064195371	267.818604559247	1244.960142890530	114.373142983141	283.772711141666	1373.960313483686	75.764658920001	248.606581190991	862.653268672423	1102.874451025870	231.182505072148	847.279833806610	840.892314685481	242.794022829126	1206.645513136166	1120.484177145107	758.546983024948	1437.931513361517	1171.723994324407	673.879682892695	
72	42.503571428571	854.591523463269	1004.491667989573	504.163970755053	999.397553720713	1432.668118972474	306.995676462426	1129.666136034915	1363.222313886163	446.713365421957	1078.871644124915	1433.578754141898	634.157919053000	1007.413219462305	1492.068133175465	464.970553649793	1093.912200785979	936.922806499175	591.757214578979	1047.729724543144	959.668132483464	320.010216621436	1092.466601391785	726.313203845320	565.662548510261	994.007493006507	630.977614504456	634.976111501374	1050.418792460877	566.854708277213	552.401848635456	1035.046281337946	483.448206296312	559.886137840696	1118.181635492672	768.067653874056	340.265712543842	1056.473039885321	639.704988689738	269.418761201692	1162.812897567051	578.354012549946	320.691407816180	1185.348200232168	513.133284172127	317.501619093091	1165.920038160349	441.517641219488	308.999027408806	1091.241968787211	314.775368461261	262.965852795636	1177.661552503281	211.925578434810	310.738263420616	998.747793308999	398.312678044448	568.063242710724	919.898812662262	301.051647371932	632.271887274084	952.204472573550	203.070579474551	566.946297628485	810.209430726309	41.809389362351	536.542576130193	980.491435096617	95.850713055541	571.676211513491	893.433729286514	36.316841876719	611.638609632697	1101.398222410784	45.637951637384	599.244033219440	1088.255877436779	42.587045938003	356.010097535085	1156.665372393391	40.297681718788	271.295715965649	1235.755350348613	109.777261509286	288.248658797189	1363.955293370813	68.095897473533	252.759359299366	862.456847614587	1101.843534841232	228.816651146394	847.768765421119	839.808066636131	239.933375140212	1206.885190058723	1120.299057922954	755.904475010027	1437.817809657680	1172.953818341639	671.311324802064	
73	42.517142857143	855.709198058566	1003.429228093149	501.212155078891	999.221088550971	1431.656694703595	303.876967118248	1129.613280747502	1362.905986202501	443.780995227561	1078.295459561371	1433.154242773079	631.152075714291	1007.065386868712	1491.273811718284	461.786608032834	1094.996111171810	936.299383325764	589.533018843050	1049.528815466209	958.602485829453	317.724688937942	1093.100786929546	725.329769923551	564.078136607230	993.757813377093	630.448418700839	633.173961007026	1050.015305973165	565.737431717743	550.999729108971	1034.164095058252	482.062420323466	558.382255528821	1120.457270598422	766.690019099228	339.192571917810	1057.658304777571	638.081864838290	269.701434022928	1163.623524411933	576.793332693467	321.481828251527	1184.877926474158	510.335811552729	319.084160001206	1164.524734132240	438.194537802284	310.529070553222	1087.411800923713	312.721875824500	264.761501990606	1171.166268955031	208.294735945870	313.721866001729	996.826051872970	397.357346158200	566.778789396985	917.001949564124	301.109228573090	631.365632119987	948.063452577672	202.582695220013	566.419125440579	804.783771648628	41.904511260493	536.606543389772	975.100534519803	95.800760178808	571.651676323552	887.995456096896	36.297574444942	611.660070037243	1095.962106614927	45.337923752507	599.321924290451	1077.457448442366	41.309582609475	358.773812884432	1145.998711150780	38.488485350650	274.096985205953	1226.735772139166	105.716098776165	292.273486131176	1354.279632701893	61.371258917557	256.526434345717	862.960450695641	1100.545785912619	226.008962470385	849.416302986702	838.437527966342	236.397825505180	1206.555632176785	1119.912244621797	753.253809852674	1437.475481371716	1173.018881527746	668.964367095627	
74	42.530714285714	856.831834756266	1002.447096021333	498.119262955818	999.246984891038	1430.672914331387	300.559123110510	1129.667839986075	1362.644703952378	440.747661478815	1077.717224096579	1432.840723051428	627.994399598560	1006.801129769336	1490.557960578412	458.401676713166	1096.082683294115	935.723450248058	587.251965013858	1051.405095103762	957.658182589278	315.397836613860	1093.940355503737	724.405605133129	562.405625303930	993.795451509886	629.895629430923	631.210621556849	1050.002716668306	564.633781075286	549.451271770997	1033.698831977418	480.603395260987	556.732292376608	1122.744076074886	765.378250336802	338.158386442461	1058.933981334925	636.790914084772	269.685465403368	1164.409690056728	575.445529411363	322.171209194684	1184.297265066308	507.822038846069	320.478938394504	1163.194674798418	435.238031373613	311.673084523698	1084.005084087615	310.957861225926	265.860762766710	1165.157154932360	205.122013196947	316.105461444000	995.224708960418	396.356126105270	565.362056155394	914.343551729567	301.224293540012	630.347594011115	944.085536154082	202.122824378343	565.834246220484	799.377777604172	42.128895772976	536.676160366587	969.769262210345	95.782318241202	571.633214128885	882.586436858153	36.322340300874	611.670460779179	1090.548945174324	44.951199903522	599.413505128249	1067.493287500522	40.185935777106	360.764837848424	1136.221309823281	37.116173329605	276.157384810157	1218.287156520560	102.397080140253	295.630399351371	1345.342147149721	55.918968114725	259.695925989288	864.224077459579	1099.025759060731	222.749818351748	852.237963057102	836.833203791713	232.214426962461	1205.638785317327	1119.344594948662	750.573881416757	1436.903819656801	1171.889257650555	666.838886102859	
